<?xml version="1.0" encoding="utf-8"?>
<!-- Generator: Adobe Illustrator 18.1.1, SVG Export Plug-In . SVG Version: 6.00 Build 0)  -->
<svg version="1.1" id="Layer_1" xmlns="http://www.w3.org/2000/svg" xmlns:xlink="http://www.w3.org/1999/xlink" x="0px" y="0px"
	 viewBox="0 0 82.2 82.2" enable-background="new 0 0 82.2 82.2" xml:space="preserve">
<circle opacity="0.6" fill="none" stroke="#FFFFFF" stroke-width="6" stroke-miterlimit="10" cx="41.1" cy="41.1" r="38.1"/>
<path opacity="0.6" fill="#FFFFFF" d="M60.2,18c-2.6-2.6-6.7-3.6-11.1-2.6c-5.7,1.3-10.5,5.6-12.6,11.3l-2.5,7.1l-7.4-1.4
	c-1.9-0.4-3.8,0.2-5.1,1.6L11,44.5l14.8,2.9l5.8-5.8c0,0.8,0.2,1.6,0.6,2.3l-9.5,9.5C22,54,22,55,22.6,55.6c0.3,0.3,0.7,0.5,1.1,0.5
	c0.4,0,0.8-0.2,1.1-0.5l9.5-9.5c0.7,0.4,1.5,0.6,2.3,0.6c0,0,0,0,0,0l-5.8,5.8l2.9,14.8l10.5-10.5c1.3-1.3,1.9-3.2,1.6-5.1l-1.4-7.4
	l7.1-2.5c5.7-2,10.1-6.8,11.3-12.6C63.8,24.7,62.8,20.6,60.2,18z M24.7,44l-7.5-1.5l6.4-6.4c0.6-0.6,1.5-0.9,2.3-0.7l6.1,1.2
	L24.7,44z M42,54.5l-6.4,6.4l-1.5-7.5l7.4-7.4l1.2,6.1C42.9,53,42.7,53.9,42,54.5z M59.8,28.4c-1,4.7-4.6,8.7-9.3,10.3l-13.2,4.7
	c-0.2,0.1-0.3,0.1-0.5,0.1l4.3-4.3c0.6-0.6,0.6-1.6,0-2.2c-0.6-0.6-1.6-0.6-2.2,0l-4.3,4.3c0-0.2,0-0.3,0.1-0.5l2.3-6.6l2.3-6.6
	c1.7-4.7,5.6-8.3,10.3-9.3c3.4-0.7,6.4-0.1,8.3,1.8C59.9,22,60.5,25.1,59.8,28.4z"/>
</svg>
