<?xml version="1.0" encoding="utf-8"?>
<!-- Generator: Adobe Illustrator 18.1.1, SVG Export Plug-In . SVG Version: 6.00 Build 0)  -->
<svg version="1.1" id="Layer_1" xmlns="http://www.w3.org/2000/svg" xmlns:xlink="http://www.w3.org/1999/xlink" x="0px" y="0px"
	 viewBox="0 0 82.2 82.2" enable-background="new 0 0 82.2 82.2" xml:space="preserve">
<circle opacity="0.6" fill="none" stroke="#FFFFFF" stroke-width="6" stroke-miterlimit="10" cx="41.1" cy="41.1" r="38.1"/>
<g opacity="0.6">
	<path fill="#FFFFFF" d="M62.2,19.4L62.2,19.4c-0.8-0.8-2.1-1.2-6.4,1.4c-2.9,1.7-6,4.2-8.9,7c-0.5,0.5-0.7,1.1-0.7,1.7
		c0,0.7,0.3,1.3,0.7,1.8l3.4,3.4c0.5,0.5,1.1,0.7,1.7,0.7c0,0,0,0,0,0c0.7,0,1.3-0.3,1.7-0.7c2.8-2.9,5.3-6.1,7-8.9
		C63.4,21.5,63,20.2,62.2,19.4z M52.1,32.1l-2.5-2.5c4-3.8,7.6-6.1,9.6-7.1C58.2,24.5,55.9,28.1,52.1,32.1z"/>
	<path fill="#FFFFFF" d="M38.1,34.9L22,51.1l8.6,8.6l16.1-16.1l4.1-6.1l-6.5-6.5L38.1,34.9z M44.3,41.5L30.6,55.3l-4.2-4.2
		l13.7-13.7l3.8-2.5l3,3L44.3,41.5z"/>
	<path fill="#FFFFFF" d="M22,53.3c-0.6-0.6-1.6-0.6-2.2,0c-0.6,0.6-0.6,1.6,0,2.2l6.4,6.4c0.3,0.3,0.7,0.5,1.1,0.5
		c0.4,0,0.8-0.2,1.1-0.5c0.6-0.6,0.6-1.6,0-2.2L22,53.3z"/>
</g>
</svg>
