<?xml version="1.0" standalone="no"?>
<!DOCTYPE svg PUBLIC "-//W3C//DTD SVG 20010904//EN"
 "http://www.w3.org/TR/2001/REC-SVG-20010904/DTD/svg10.dtd">
<svg version="1.0" xmlns="http://www.w3.org/2000/svg"
 width="117.000000pt" height="117.000000pt" viewBox="0 0 117.000000 117.000000"
 preserveAspectRatio="xMidYMid meet">
<metadata>
Created by potrace 1.11, written by Peter Selinger 2001-2013
</metadata>
<g transform="translate(0.000000,117.000000) scale(0.100000,-0.100000)"
fill="#000000" stroke="none">
<path d="M200 1135 c0 -19 -4 -35 -10 -35 -5 0 -10 -13 -10 -30 0 -16 -4 -30
-10 -30 -5 0 -10 5 -10 10 0 6 -7 10 -15 10 -8 0 -15 -4 -15 -10 0 -5 7 -10
15 -10 8 0 15 -9 15 -20 0 -11 5 -20 10 -20 6 0 10 -38 10 -95 l0 -96 35 -34
c33 -34 36 -35 115 -35 47 0 80 -4 80 -10 0 -5 5 -10 11 -10 13 0 39 -25 39
-38 0 -6 -6 -13 -12 -16 -10 -5 -10 -7 0 -12 6 -3 12 -19 12 -35 0 -16 5 -29
10 -29 6 0 10 -4 10 -10 0 -5 -9 -10 -20 -10 -11 0 -20 -4 -20 -10 0 -5 -7
-10 -15 -10 -11 0 -15 -12 -15 -45 0 -33 4 -45 15 -45 8 0 15 -4 15 -10 0 -5
-11 -10 -25 -10 -22 0 -25 4 -25 40 0 22 -4 40 -10 40 -5 0 -10 -4 -10 -10 0
-5 -13 -10 -30 -10 -28 0 -30 3 -30 35 0 19 -4 35 -10 35 -5 0 -10 -4 -10 -10
0 -6 -28 -10 -65 -10 l-65 0 0 -65 c0 -51 -3 -65 -15 -65 -8 0 -15 -4 -15 -10
0 -5 16 -10 35 -10 33 0 35 -2 35 -35 0 -19 -4 -35 -10 -35 -5 0 -10 -4 -10
-10 0 -5 18 -10 40 -10 l40 0 0 -45 c0 -25 -4 -45 -10 -45 -5 0 -10 -4 -10
-10 0 -6 28 -10 65 -10 58 0 65 -2 65 -20 0 -11 -4 -20 -10 -20 -5 0 -10 -4
-10 -10 0 -5 25 -10 55 -10 30 0 55 5 55 10 0 6 14 10 30 10 17 0 30 -4 30
-10 0 -5 -4 -10 -10 -10 -5 0 -10 -9 -10 -20 0 -11 5 -20 10 -20 6 0 10 -7 10
-15 0 -8 9 -15 20 -15 11 0 20 7 20 15 0 8 6 15 14 15 8 0 16 6 19 13 2 7 8 8
13 3 5 -5 4 -11 -3 -13 -7 -3 -13 -11 -13 -19 0 -8 -7 -14 -15 -14 -8 0 -15
-9 -15 -20 0 -11 7 -20 15 -20 8 0 15 -7 15 -15 0 -8 9 -15 20 -15 11 0 20 7
20 15 0 8 5 15 10 15 6 0 10 9 10 20 0 11 -4 20 -10 20 -17 0 -11 25 10 40 11
8 20 22 20 32 0 11 7 18 20 18 11 0 20 -4 20 -10 0 -5 25 -10 55 -10 30 0 55
5 55 10 0 6 -4 10 -10 10 -5 0 -10 9 -10 20 0 18 7 20 65 20 37 0 65 4 65 10
0 6 -4 10 -10 10 -5 0 -10 20 -10 45 l0 45 40 0 c22 0 40 5 40 10 0 6 -4 10
-10 10 -5 0 -10 16 -10 35 0 33 2 35 35 35 19 0 35 5 35 10 0 6 -7 10 -15 10
-12 0 -15 14 -15 65 l0 65 -60 0 c-33 0 -60 4 -60 10 0 6 -7 10 -15 10 -10 0
-15 -11 -15 -35 0 -32 -2 -35 -30 -35 -16 0 -30 5 -30 10 0 6 -4 10 -10 10 -5
0 -10 -18 -10 -40 0 -33 -3 -40 -20 -40 -11 0 -20 5 -20 10 0 6 5 10 10 10 15
0 12 80 -4 96 -8 8 -24 14 -35 14 -12 0 -21 5 -21 10 0 6 5 10 10 10 6 0 10
14 10 30 0 20 5 30 15 30 8 0 15 5 15 10 0 6 -7 10 -15 10 -8 0 -15 7 -15 15
0 8 6 15 13 15 7 0 19 9 27 20 12 17 26 20 93 20 75 0 79 1 112 35 l35 34 0
96 c0 57 4 95 10 95 6 0 10 9 10 20 0 11 7 20 15 20 8 0 15 5 15 10 0 6 -7 10
-15 10 -8 0 -15 -4 -15 -10 0 -5 -4 -10 -10 -10 -5 0 -10 14 -10 30 0 17 -4
30 -10 30 -5 0 -10 16 -10 35 0 19 -4 35 -10 35 -6 0 -10 -40 -10 -100 0 -93
-1 -100 -20 -100 -11 0 -20 7 -20 15 0 8 -4 15 -10 15 -5 0 -10 9 -10 20 0 11
-6 20 -13 20 -7 0 -19 -9 -27 -20 -8 -11 -20 -20 -28 -20 -18 0 -42 25 -42 44
0 9 -4 16 -10 16 -15 0 -12 -80 4 -96 9 -8 35 -14 65 -14 28 0 51 -4 51 -10 0
-5 7 -10 16 -10 48 0 61 -84 19 -125 -18 -18 -35 -25 -65 -25 l-40 0 0 45 c0
25 -4 45 -10 45 -5 0 -10 9 -10 20 0 11 -4 20 -10 20 -6 0 -10 -28 -10 -65 l0
-65 -35 0 c-28 0 -35 4 -35 20 0 11 -4 20 -10 20 -5 0 -10 11 -10 25 0 14 -4
25 -10 25 -6 0 -10 -40 -10 -100 0 -60 -4 -100 -10 -100 -5 0 -10 -9 -10 -20
0 -11 -4 -20 -10 -20 -5 0 -10 -7 -10 -16 0 -20 -24 -44 -45 -44 -21 0 -45 24
-45 44 0 9 -4 16 -10 16 -5 0 -10 9 -10 20 0 11 -4 20 -10 20 -6 0 -10 40 -10
100 0 60 -4 100 -10 100 -5 0 -10 -11 -10 -25 0 -14 -4 -25 -10 -25 -5 0 -10
-9 -10 -20 0 -16 -7 -20 -35 -20 l-35 0 0 65 c0 37 -4 65 -10 65 -5 0 -10 -9
-10 -20 0 -11 -4 -20 -10 -20 -5 0 -10 -20 -10 -45 l0 -45 -40 0 c-54 0 -90
34 -90 85 0 41 18 65 49 65 12 0 21 5 21 10 0 6 21 10 46 10 26 0 52 6 60 14
16 16 19 96 4 96 -5 0 -10 -7 -10 -16 0 -19 -24 -44 -42 -44 -8 0 -20 9 -28
20 -8 11 -18 20 -22 20 -4 0 -8 -9 -8 -20 0 -11 -7 -20 -15 -20 -8 0 -15 -7
-15 -15 0 -8 -9 -15 -20 -15 -19 0 -20 7 -20 100 0 60 -4 100 -10 100 -5 0
-10 -16 -10 -35z"/>
</g>
</svg>
